<?xml version="1.0" encoding="UTF-8"?> <svg xmlns="http://www.w3.org/2000/svg" viewBox="0 0 203.44 203.44"><defs><style>.cls-1{fill:#e1251b;}.cls-2,.cls-3{fill:#fff;}.cls-2{fill-rule:evenodd;}</style></defs><title>Red Shield Full</title><g id="Layer_2" data-name="Layer 2"><g id="Layer_1-2" data-name="Layer 1"><circle class="cls-1" cx="101.72" cy="101.72" r="101.72"></circle><polygon class="cls-2" points="23.07 134.22 102.58 14.83 149.45 83.89 127.97 83.91 102.48 46.82 56.62 116.42 148.14 116.61 142.29 108.07 97.57 108.07 109.44 90.47 153.35 90.61 180.58 134.28 23.07 134.22"></polygon><path class="cls-3" d="M55.72,159.31l-.26,1.35H52.74a2.05,2.05,0,0,0-1.21.34,2,2,0,0,0-.7.77c-.14.28-.24.54-.33.77a6.82,6.82,0,0,0-.19.71l0,.14,0,.12q0,.15-.06.33c0,.13,0,.27,0,.44a2.1,2.1,0,0,0,0,.55,1.55,1.55,0,0,0,.22.55.89.89,0,0,0,.52.36,4.15,4.15,0,0,0,.8.07h2.71l-.27,1.37H51.41A5.36,5.36,0,0,1,50.1,167a2.55,2.55,0,0,1-1-.55,2.44,2.44,0,0,1-.67-1.37,5.1,5.1,0,0,1,.06-1.73l.09-.47a4.94,4.94,0,0,1,.25-.83,6.08,6.08,0,0,1,.37-.77,3.86,3.86,0,0,1,.43-.63,4.65,4.65,0,0,1,.63-.61,2.5,2.5,0,0,1,.92-.5,4.69,4.69,0,0,1,1-.21,6.07,6.07,0,0,1,.85-.06Z"></path><path class="cls-3" d="M55.83,167.18H54.08l4.84-7.87h1.75l1.82,7.87H60.65l-.35-1.89H56.88Zm1.85-3.27H60l-.61-3Z"></path><path class="cls-3" d="M64.43,167.18H62.77l1.55-7.87h4.05l.63,0c.21,0,.44.07.69.13a1.22,1.22,0,0,1,.67.44,1.84,1.84,0,0,1,.36.79,3.26,3.26,0,0,1-.06,1,3.19,3.19,0,0,1-.36,1,2.6,2.6,0,0,1-.67.76,2.46,2.46,0,0,1-1,.43l1.29,3.3H68.1L67,164.1H65Zm3.28-6.46h-2l-.39,2h2a5.26,5.26,0,0,0,.76-.05,1.09,1.09,0,0,0,.92-.95c.08-.43,0-.7-.23-.81A2.44,2.44,0,0,0,67.71,160.72Z"></path><path class="cls-3" d="M76.18,165.87l-.26,1.31H73.56a6.27,6.27,0,0,1-.81-.05,2.15,2.15,0,0,1-.72-.23,1.69,1.69,0,0,1-.64-.51,1.82,1.82,0,0,1-.32-.71,3,3,0,0,1,0-.8,7.28,7.28,0,0,1,.12-.89l.92-4.68H73.7l-.85,4.32-.09.49a4.47,4.47,0,0,0-.07.55,1.18,1.18,0,0,0,.1.63.73.73,0,0,0,.46.43,2.56,2.56,0,0,0,1,.14Z"></path><path class="cls-3" d="M77.36,161.51a3.72,3.72,0,0,1,.93-1.28,4.93,4.93,0,0,1,.9-.61,5,5,0,0,1,.82-.29,5.07,5.07,0,0,1,.75-.14c.21,0,.46,0,.74,0a5.29,5.29,0,0,1,1.21.11l.59.17a2.1,2.1,0,0,1,.44.23,1.49,1.49,0,0,1,.47.43,2.52,2.52,0,0,1,.54,1.39,6.17,6.17,0,0,1-.1,1.76,7.22,7.22,0,0,1-.59,1.77A4,4,0,0,1,83,166.43a3.62,3.62,0,0,1-1.49.72,6.63,6.63,0,0,1-1.55.19,6,6,0,0,1-1.37-.16,2.09,2.09,0,0,1-.4-.12,2.94,2.94,0,0,1-.43-.22,2.72,2.72,0,0,1-.5-.42,2.18,2.18,0,0,1-.37-.63,4.19,4.19,0,0,1-.18-1,5.63,5.63,0,0,1,.12-1.56A6.71,6.71,0,0,1,77.36,161.51Zm1.57.57a5.35,5.35,0,0,0-.35,1.15,5.67,5.67,0,0,0-.08,1.47,1.09,1.09,0,0,0,.64,1.07,2.94,2.94,0,0,0,1,.22,3,3,0,0,0,.84-.12,2.31,2.31,0,0,0,1.45-1.43,5.19,5.19,0,0,0,.39-1.17,4.19,4.19,0,0,0,.09-1c0-.26,0-.43,0-.5a1.45,1.45,0,0,0-.1-.34,1.19,1.19,0,0,0-.27-.43,1.09,1.09,0,0,0-.43-.29,3.13,3.13,0,0,0-.44-.11,3,3,0,0,0-.42,0,2.91,2.91,0,0,0-.82.12A2.65,2.65,0,0,0,78.93,162.08Z"></path><path class="cls-3" d="M88.55,159.31H92.9l-.28,1.41H88.54c-.86,0-1.36.35-1.49,1a.58.58,0,0,0,.17.63,1,1,0,0,0,.71.22h2.18a6.08,6.08,0,0,1,1.11.09,1.65,1.65,0,0,1,.82.53,1.9,1.9,0,0,1,.16,1.6,3.15,3.15,0,0,1-.17.59,3.11,3.11,0,0,1-.32.63,2,2,0,0,1-.62.63,2.86,2.86,0,0,1-.93.39,4.81,4.81,0,0,1-1.18.12h-4.4l.28-1.42H89a2.29,2.29,0,0,0,1-.18.87.87,0,0,0,.46-.68l0-.16a.79.79,0,0,0-.08-.5A.72.72,0,0,0,90,164a2.23,2.23,0,0,0-.56-.06H87.51a2.7,2.7,0,0,1-1.84-.52,1.8,1.8,0,0,1-.34-1.77,3.38,3.38,0,0,1,.43-1.11,2.29,2.29,0,0,1,.72-.76,2.57,2.57,0,0,1,.9-.38A4.67,4.67,0,0,1,88.55,159.31Z"></path><path class="cls-3" d="M101,165.74l.36-1.83h-2.2l.27-1.39h3.88l-.91,4.66H98.22a2.54,2.54,0,0,0-.34-.05,2.34,2.34,0,0,1-.32-.07,4.16,4.16,0,0,1-.48-.17,2.28,2.28,0,0,1-.72-.55,2.19,2.19,0,0,1-.53-1.22,5.1,5.1,0,0,1,.06-1.73l.09-.47a5,5,0,0,1,.34-1.07,6.2,6.2,0,0,1,.53-.91,4.23,4.23,0,0,1,.66-.73,4.1,4.1,0,0,1,2.88-.9h3.54l-.27,1.37h-3.54a2,2,0,0,0-1.19.33,2.37,2.37,0,0,0-.75.9,5.4,5.4,0,0,0-.41,1.27l0,.12a3.32,3.32,0,0,0,0,1.8c.18.43.63.64,1.35.64Z"></path><path class="cls-3" d="M105.16,167.18h-1.65l1.54-7.87h4q.32,0,.63,0c.21,0,.44.07.69.13a1.22,1.22,0,0,1,.67.44,1.64,1.64,0,0,1,.36.79,3.61,3.61,0,0,1,0,1,3.46,3.46,0,0,1-.37,1,2.47,2.47,0,0,1-.67.76,2.4,2.4,0,0,1-1,.43l1.29,3.3h-1.85l-1.13-3.08h-1.94Zm3.28-6.46h-2l-.39,2h2a5.47,5.47,0,0,0,.76-.05,1.1,1.1,0,0,0,.91-.95c.08-.43,0-.7-.23-.81A2.44,2.44,0,0,0,108.44,160.72Z"></path><path class="cls-3" d="M112.12,167.18h-1.75l4.85-7.87H117l1.82,7.87H117l-.36-1.89h-3.42Zm1.86-3.27h2.35l-.6-3Z"></path><path class="cls-3" d="M126.53,159.31l-.27,1.35h-2.71a2.05,2.05,0,0,0-1.21.34,2,2,0,0,0-.7.77,6.58,6.58,0,0,0-.33.77,5,5,0,0,0-.19.71l0,.14,0,.12-.06.33c0,.13,0,.27,0,.44a2.1,2.1,0,0,0,0,.55,1.74,1.74,0,0,0,.21.55,1,1,0,0,0,.52.36,4.27,4.27,0,0,0,.81.07h2.71l-.27,1.37h-2.77a5.36,5.36,0,0,1-1.31-.14,2.55,2.55,0,0,1-1-.55,2.44,2.44,0,0,1-.67-1.37,5.1,5.1,0,0,1,.06-1.73l.09-.47a4.16,4.16,0,0,1,.25-.83,6.08,6.08,0,0,1,.37-.77,3.86,3.86,0,0,1,.43-.63,4.65,4.65,0,0,1,.63-.61,2.5,2.5,0,0,1,.92-.5,4.69,4.69,0,0,1,1-.21,6.07,6.07,0,0,1,.85-.06Z"></path><path class="cls-3" d="M127.49,159.31h1.73l-1.54,7.87H126Z"></path><path class="cls-3" d="M136.54,159.31l-.27,1.37h-2.72a2.26,2.26,0,0,0-1.46.46,2.22,2.22,0,0,0-.75,1.38h4.57l-.27,1.36h-4.57a1.87,1.87,0,0,0,.09,1.39,1.11,1.11,0,0,0,.58.47,4.19,4.19,0,0,0,.81.07h2.71l-.27,1.37h-2.77a5.39,5.39,0,0,1-1.32-.14,2.55,2.55,0,0,1-1-.55,2.52,2.52,0,0,1-.68-1.37,5.1,5.1,0,0,1,.06-1.73l.12-.47a4.16,4.16,0,0,1,.25-.83,6.08,6.08,0,0,1,.37-.77,3.32,3.32,0,0,1,.43-.63,4.65,4.65,0,0,1,.63-.61,2.5,2.5,0,0,1,.92-.5,4.6,4.6,0,0,1,.94-.21,6.33,6.33,0,0,1,.86-.06Z"></path><path class="cls-3" d="M140.44,167.18h-2.15l.25-1.31h2a2.39,2.39,0,0,0,1.23-.26,1.41,1.41,0,0,0,.65-.73,6.62,6.62,0,0,0,.35-1.25l.85-4.32h1.7l-.91,4.68a6,6,0,0,1-.34,1.19,5.29,5.29,0,0,1-.36.69,4,4,0,0,1-.51.55,2.1,2.1,0,0,1-.67.43,5.32,5.32,0,0,1-.56.19,3.29,3.29,0,0,1-.43.09c-.14,0-.34,0-.59,0Z"></path><path class="cls-3" d="M146.63,167.18H145l1.54-7.87h4.06l.62,0c.21,0,.44.07.7.13a1.23,1.23,0,0,1,.66.44,1.64,1.64,0,0,1,.36.79,3.25,3.25,0,0,1,0,1,3.19,3.19,0,0,1-.36,1,2.6,2.6,0,0,1-.67.76,2.44,2.44,0,0,1-1,.43l1.3,3.3h-1.85l-1.14-3.08h-1.94Zm3.29-6.46h-2l-.39,2h2a5.36,5.36,0,0,0,.76-.05,1.26,1.26,0,0,0,.59-.29,1.14,1.14,0,0,0,.32-.66c.09-.43,0-.7-.23-.81A2.36,2.36,0,0,0,149.92,160.72Z"></path><path class="cls-3" d="M153.83,167.18h-1.3l.27-1.37h1.3Z"></path><path class="cls-3" d="M115.76,149.64a2.9,2.9,0,0,0,0-1.14,2.43,2.43,0,0,0-.5-.95,3.09,3.09,0,0,0-.7-.58,3.93,3.93,0,0,0,2.11-2.71,8.14,8.14,0,0,0,0-1.46,1.54,1.54,0,0,0-1-1.43,7.05,7.05,0,0,0-1.49-.48,8.85,8.85,0,0,0-1.6-.12h-6.33l-2.18,12.37H111a7.77,7.77,0,0,0,1.6-.15,5.63,5.63,0,0,0,1.08-.33,5.57,5.57,0,0,0,.89-.55,2.68,2.68,0,0,0,.84-1.18A8.48,8.48,0,0,0,115.76,149.64Zm-3.05-.22a1.47,1.47,0,0,1-.56,1,2.17,2.17,0,0,1-1.21.3h-3.53l.45-2.55h3.58a1.44,1.44,0,0,1,1.12.35A1.09,1.09,0,0,1,112.71,149.42Zm.87-4.95a1.38,1.38,0,0,1-.56,1,2.25,2.25,0,0,1-1.22.29h-3.51l.44-2.49h3.57a1.43,1.43,0,0,1,1.13.36A1,1,0,0,1,113.58,144.47Z"></path><path class="cls-3" d="M125.39,140.77H122.5l-7.38,12.37h3l1.55-2.89h5.05l.59,2.89h3.13l-3.06-12.26Zm-4.32,7,2.28-4,.89,4Z"></path><path class="cls-3" d="M140.68,141.74a2,2,0,0,0-1.11-.72,7.76,7.76,0,0,0-1.09-.2c-.32,0-.64,0-1,0h-6.36L129,153.14h2.83l.83-4.72h2.75l1.83,4.72h3.17l-2.1-5.1a4,4,0,0,0,1.36-.65,4.27,4.27,0,0,0,1-1.21,5.06,5.06,0,0,0,.54-1.59,5.53,5.53,0,0,0,0-1.57A2.73,2.73,0,0,0,140.68,141.74Zm-2.29,2.82a1.44,1.44,0,0,1-1.25,1.35A7.84,7.84,0,0,1,136,146h-2.93l.49-2.76h3a3.63,3.63,0,0,1,1.56.26C138.21,143.54,138.54,143.7,138.39,144.56Z"></path><path class="cls-3" d="M162.73,140.88l0-.11h-2.89l-7.06,11.84L150.87,148a3.79,3.79,0,0,0,1.37-.65,4.14,4.14,0,0,0,1-1.21,5.24,5.24,0,0,0,.54-1.59,5.53,5.53,0,0,0,0-1.57,2.77,2.77,0,0,0-.61-1.28,2,2,0,0,0-1.11-.72,8,8,0,0,0-1.09-.2c-.32,0-.65,0-1,0h-6.36l-2.18,12.37h2.84l.83-4.72H148l1.83,4.72h5.67l1.55-2.89h5l.6,2.89h3.13Zm-13,5a7.84,7.84,0,0,1-1.14.08h-2.93l.49-2.76h3a3.66,3.66,0,0,1,1.56.26c.3.14.4.5.29,1.08a1.72,1.72,0,0,1-.43.94A1.75,1.75,0,0,1,149.73,145.91Zm8.66,1.91,2.28-4,.89,4Z"></path><path class="cls-3" d="M42.17,145.69l-.48,2.43h3.37l-.49,2.52H41.84c-1.05,0-1.68-.29-1.93-.9a4.84,4.84,0,0,1,0-2.66l0-.19a8.23,8.23,0,0,1,.62-1.91,3.44,3.44,0,0,1,1.1-1.33,3,3,0,0,1,1.74-.48h5.56l.47-2.4H43.77a6.28,6.28,0,0,0-4.5,1.42,6.69,6.69,0,0,0-1,1.14,9,9,0,0,0-.83,1.42,7.86,7.86,0,0,0-.53,1.68l-.14.72a8.09,8.09,0,0,0-.1,2.71,3.56,3.56,0,0,0,.86,2,3.63,3.63,0,0,0,1.15.87,6.68,6.68,0,0,0,.76.27,3.52,3.52,0,0,0,.51.1l.55.08H47l1.46-7.45Z"></path><path class="cls-3" d="M69.34,140.77H66.45l-7,11.42L57.79,148a3.92,3.92,0,0,0,1.38-.65,4.05,4.05,0,0,0,1.07-1.21,5,5,0,0,0,.57-1.59,5.12,5.12,0,0,0,.08-1.56,2.72,2.72,0,0,0-.58-1.29,2,2,0,0,0-1.1-.72,8.81,8.81,0,0,0-1.09-.2c-.33,0-.65,0-1,0H50.8l-2.42,12.37h2.84l.92-4.72h2.75l1.74,4.72h5.25l1.6-2.89h5l.55,2.89H72.2l-2.83-12.25Zm-12.66,5.14a7.16,7.16,0,0,1-1.14.08H52.62l.54-2.75h3a3.63,3.63,0,0,1,1.55.25c.11,0,.44.22.27,1.08a1.73,1.73,0,0,1-.45.94A1.83,1.83,0,0,1,56.68,145.91Zm8.21,1.91,2.36-4,.81,4Z"></path><path class="cls-3" d="M76.58,150.64a1.27,1.27,0,0,1-.7-.48,2.25,2.25,0,0,1-.31-.79,2.87,2.87,0,0,1-.06-.81c0-.26,0-.48.07-.66s0-.35.08-.5l.08-.41a7,7,0,0,1,.29-1.06,10.68,10.68,0,0,1,.49-1.18,3.1,3.1,0,0,1,2.8-1.62h4.29l.46-2.36H79.69a9.91,9.91,0,0,0-1.33.09,8.52,8.52,0,0,0-1.48.33,4.23,4.23,0,0,0-1.46.79,8.38,8.38,0,0,0-1,1,6,6,0,0,0-.67,1,10.1,10.1,0,0,0-.58,1.19,7.47,7.47,0,0,0-.39,1.3l-.14.72a8.09,8.09,0,0,0-.1,2.71,3.59,3.59,0,0,0,2.68,3.06,8,8,0,0,0,2,.22h4.37l.47-2.4H77.78A5.53,5.53,0,0,1,76.58,150.64Z"></path><polygon class="cls-3" points="85.25 140.77 82.82 153.14 85.78 153.14 88.2 140.77 85.25 140.77"></polygon><path class="cls-3" d="M93.72,140.86a8.52,8.52,0,0,0-1.48.33,4.23,4.23,0,0,0-1.46.79,8.38,8.38,0,0,0-1,1,6.7,6.7,0,0,0-.68,1,10.07,10.07,0,0,0-.57,1.19,6.69,6.69,0,0,0-.39,1.3l-.18.72a7.82,7.82,0,0,0-.09,2.71,3.59,3.59,0,0,0,2.69,3.06,8,8,0,0,0,2.05.22H97l.47-2.4H93.13a5.51,5.51,0,0,1-1.21-.1,1.51,1.51,0,0,1-.8-.67,2.62,2.62,0,0,1-.14-1.88h7l.47-2.4h-7a3.25,3.25,0,0,1,1.07-1.84,3.35,3.35,0,0,1,2.15-.68H99l.47-2.4H95.05A9.91,9.91,0,0,0,93.72,140.86Z"></path><path class="cls-3" d="M101.72,194.5a92.78,92.78,0,1,1,92.78-92.78A92.88,92.88,0,0,1,101.72,194.5Zm0-182.55a89.78,89.78,0,1,0,89.78,89.77A89.87,89.87,0,0,0,101.72,12Z"></path></g></g></svg> 